<?xml version="1.0" encoding="UTF-8" standalone="no"?>
<!-- Created with Inkscape (http://www.inkscape.org/) -->
<svg
   xmlns:xml="http://www.w3.org/XML/1998/namespace"
   xmlns:svg="http://www.w3.org/2000/svg"
   xmlns="http://www.w3.org/2000/svg"
   xmlns:xlink="http://www.w3.org/1999/xlink"
   xml:space="preserve"
   id="svg153"
   viewBox="0 0 256 256"
   height="60.000000"
   width="60.000000"
   y="0.0000000"
   x="0.0000000"
   version="1.0">
  <defs
   id="defs185"><linearGradient
   gradientUnits="userSpaceOnUse"
   id="XMLID_3_"
   y2="184.75000"
   x2="248.64940"
   y1="184.75000"
   x1="120.98490">
        <stop
   id="stop175"
   offset="0.0000000"
   style="stop-color:#ffff66;stop-opacity:1.0000000;" />

        <stop
   id="stop176"
   offset="1.0000000"
   style="stop-color:#ffcc66;stop-opacity:1.0000000;" />

      </linearGradient>

    
    
    
    <linearGradient
   gradientUnits="userSpaceOnUse"
   id="XMLID_1_"
   y2="191.46170"
   x2="58.776798"
   y1="8.8970003"
   x1="183.60741">
      <stop
   id="stop159"
   offset="0.0000000"
   style="stop-color:#ffffff;stop-opacity:1.0000000;" />

      <stop
   id="stop160"
   offset="1.0000000"
   style="stop-color:#ff0000;stop-opacity:1.0000000;" />

    </linearGradient>

    
    <radialGradient
   gradientUnits="userSpaceOnUse"
   id="XMLID_2_"
   fy="247.77440"
   fx="121.44780"
   r="163.82730"
   cy="247.77440"
   cx="121.44780">
      <stop
   id="stop166"
   offset="0.0000000"
   style="stop-color:#ca002d;stop-opacity:1.0000000;" />

      <stop
   id="stop167"
   offset="1.0000000"
   style="stop-color:#ff0000;stop-opacity:1.0000000;" />

    </radialGradient>

    
    
  <radialGradient
   gradientUnits="userSpaceOnUse"
   xlink:href="#XMLID_2_"
   id="radialGradient1329"
   fy="247.77440"
   fx="121.44780"
   r="163.82730"
   cy="247.77440"
   cx="121.44780" />
<linearGradient
   gradientUnits="userSpaceOnUse"
   xlink:href="#XMLID_1_"
   id="linearGradient1332"
   y2="191.46170"
   x2="58.776798"
   y1="8.8970003"
   x1="183.60741" />
<linearGradient
   gradientUnits="userSpaceOnUse"
   xlink:href="#XMLID_3_"
   id="linearGradient1337"
   y2="184.75000"
   x2="248.64940"
   y1="184.75000"
   x1="120.98490" />
<linearGradient
   gradientUnits="userSpaceOnUse"
   xlink:href="#XMLID_3_"
   id="linearGradient1353"
   y2="184.75000"
   x2="248.64940"
   y1="184.75000"
   x1="120.98490" />
<linearGradient
   gradientUnits="userSpaceOnUse"
   xlink:href="#XMLID_3_"
   id="linearGradient1369"
   y2="184.75000"
   x2="248.64940"
   y1="184.75000"
   x1="120.98490" />
<linearGradient
   gradientUnits="userSpaceOnUse"
   xlink:href="#XMLID_3_"
   id="linearGradient1385"
   y2="184.75000"
   x2="248.64940"
   y1="184.75000"
   x1="120.98490" />
<linearGradient
   gradientUnits="userSpaceOnUse"
   xlink:href="#XMLID_3_"
   id="linearGradient1401"
   y2="184.75000"
   x2="248.64940"
   y1="184.75000"
   x1="120.98490" />
<linearGradient
   gradientUnits="userSpaceOnUse"
   xlink:href="#XMLID_3_"
   id="linearGradient1420"
   y2="184.75000"
   x2="248.64940"
   y1="184.75000"
   x1="120.98490" />
<linearGradient
   gradientUnits="userSpaceOnUse"
   xlink:href="#XMLID_3_"
   id="linearGradient1436"
   y2="184.75000"
   x2="248.64940"
   y1="184.75000"
   x1="120.98490" />
</defs>

  
  
  
<g
   id="g1438">
  <g
     id="Layer_2"
     style="stroke:#000000">
    <path
   id="path183"
   style="fill:none;stroke:none"
   d="M 256.00000,256.00000 L 0.0000000,256.00000 L 0.0000000,0.0000000 L 256.00000,0.0000000 L 256.00000,256.00000 z " />

  </g>
  <g
     id="g1339"
     style="stroke:#000000"
     transform="matrix(0.901837,0.000000,0.000000,0.901837,-102.1477,26.26627)">
      <path
   id="path1341"
   style="fill:#ff9900;stroke:none"
   d="M 172.89000,128.42800 C 172.89000,128.42800 172.89000,144.87500 172.89000,155.95600 C 165.05500,148.12100 153.42500,136.49000 153.42500,136.49000 C 148.77500,131.84000 141.20800,131.84000 136.55700,136.49000 C 134.30400,138.74300 133.06400,141.73800 133.06400,144.92500 C 133.06400,148.11100 134.30400,151.10600 136.55700,153.35900 C 136.55700,153.35900 148.18700,164.98900 156.02200,172.82400 C 144.94100,172.82400 128.49600,172.82400 128.49600,172.82400 C 121.91900,172.82400 116.56800,178.17400 116.56800,184.75100 C 116.56800,191.32800 121.91900,196.67800 128.49600,196.67800 C 128.49600,196.67800 144.94300,196.67800 156.02300,196.67800 C 148.18800,204.51300 136.55800,216.14500 136.55800,216.14500 C 134.23200,218.47000 133.07000,221.52400 133.07000,224.57800 C 133.07000,227.63300 134.23200,230.68600 136.55800,233.01200 C 138.81000,235.26500 141.80600,236.50600 144.99200,236.50600 C 148.17800,236.50600 151.17300,235.26500 153.42600,233.01200 C 153.42600,233.01200 165.05600,221.38300 172.89100,213.54800 C 172.89100,224.62700 172.89100,241.07500 172.89100,241.07500 C 172.89100,247.65100 178.24300,253.00200 184.81900,253.00200 C 191.39500,253.00200 196.74700,247.65100 196.74700,241.07500 C 196.74700,241.07500 196.74700,224.62800 196.74700,213.54800 C 204.58200,221.38300 216.21200,233.01200 216.21200,233.01200 C 218.46400,235.26500 221.46000,236.50600 224.64600,236.50600 C 227.83200,236.50600 230.82700,235.26500 233.08000,233.01200 C 235.33200,230.76000 236.57300,227.76500 236.57300,224.57800 C 236.57300,221.39200 235.33200,218.39700 233.08000,216.14400 C 233.08000,216.14400 221.44900,204.51300 213.61400,196.67800 C 224.69500,196.67800 241.14200,196.67800 241.14200,196.67800 C 247.71900,196.67800 253.07000,191.32800 253.07000,184.75100 C 253.07000,178.17400 247.71900,172.82400 241.14200,172.82400 C 241.14200,172.82400 224.69600,172.82400 213.61500,172.82400 C 221.45100,164.98900 233.08000,153.35900 233.08000,153.35900 C 235.40600,151.03400 236.56800,147.97900 236.56800,144.92500 C 236.56800,141.87000 235.40600,138.81600 233.08000,136.49000 C 228.43000,131.84000 220.86300,131.84000 216.21300,136.49000 C 216.21300,136.49000 204.58300,148.12000 196.74800,155.95500 C 196.74800,144.87500 196.74800,128.42800 196.74800,128.42800 C 196.74800,121.85100 191.39600,116.50000 184.82000,116.50000 C 178.24400,116.50000 172.89000,121.85100 172.89000,128.42800 z " />

      <linearGradient
   gradientUnits="userSpaceOnUse"
   id="linearGradient1343"
   y2="184.75000"
   x2="248.64940"
   y1="184.75000"
   x1="120.98490">
        <stop
   id="stop1345"
   offset="0.0000000"
   style="stop-color:#ffff66;stop-opacity:1.0000000;" />

        <stop
   id="stop1347"
   offset="1.0000000"
   style="stop-color:#ffcc66;stop-opacity:1.0000000;" />

      </linearGradient>

      <path
   id="path1349"
   style="fill:url(#linearGradient1353);stroke:none"
   d="M 241.14000,177.24000 L 202.94900,177.24000 L 229.95500,150.23400 C 232.88700,147.30100 232.88700,142.54600 229.95500,139.61400 C 227.02100,136.68100 222.26700,136.68100 219.33400,139.61400 L 192.32800,166.62000 L 192.32800,128.42800 C 192.32800,124.28100 188.96600,120.91700 184.81800,120.91700 C 180.67000,120.91700 177.30800,124.28000 177.30800,128.42800 L 177.30800,166.62100 L 150.30200,139.61400 C 147.36800,136.68100 142.61400,136.68100 139.68100,139.61400 C 136.74800,142.54700 136.74800,147.30200 139.68100,150.23400 L 166.68700,177.24000 L 128.49600,177.24000 C 124.34800,177.24000 120.98600,180.60200 120.98600,184.75000 C 120.98600,188.89800 124.34800,192.26000 128.49600,192.26000 L 166.68900,192.26000 L 139.68100,219.26700 C 136.74900,222.20000 136.74900,226.95500 139.68100,229.88700 C 142.61500,232.82000 147.36900,232.82000 150.30200,229.88700 L 177.30800,202.88100 L 177.30800,241.07300 C 177.30800,245.22000 180.67000,248.58200 184.81800,248.58200 C 188.96600,248.58200 192.32800,245.22100 192.32800,241.07300 L 192.32800,202.88100 L 219.33400,229.88700 C 222.26700,232.82000 227.02200,232.82000 229.95400,229.88700 C 232.88600,226.95400 232.88700,222.19900 229.95400,219.26700 L 202.94700,192.26000 L 241.14000,192.26000 C 245.28800,192.26000 248.65000,188.89800 248.65000,184.75000 C 248.65000,180.60200 245.28800,177.24000 241.14000,177.24000 z " />

      <path
   id="path1351"
   style="fill:#ffff99;stroke:none"
   d="M 179.95800,128.42800 L 179.95800,173.02100 L 148.42700,141.48900 C 146.53200,139.59400 143.44900,139.59400 141.55500,141.48900 C 140.63800,142.40700 140.13200,143.62800 140.13200,144.92600 C 140.13200,146.22400 140.63800,147.44400 141.55500,148.36200 L 173.08500,179.89200 L 128.49500,179.89200 C 125.81500,179.89200 123.63500,182.07300 123.63500,184.75100 C 123.63500,187.43100 125.81500,189.61000 128.49500,189.61000 L 173.08700,189.61000 L 141.55600,221.14100 C 139.66100,223.03600 139.66100,226.11900 141.55600,228.01300 C 142.47400,228.93000 143.69300,229.43600 144.99200,229.43600 C 146.29000,229.43600 147.51000,228.93000 148.42800,228.01300 L 179.95900,196.48300 L 179.95900,241.07400 C 179.95900,243.75400 182.13900,245.93200 184.81800,245.93200 C 187.49700,245.93200 189.67700,243.75300 189.67700,241.07400 L 189.67700,196.48300 L 221.20700,228.01300 C 222.12500,228.93000 223.34500,229.43600 224.64400,229.43600 C 225.94200,229.43600 227.16200,228.93000 228.08000,228.01300 C 228.99800,227.09500 229.50400,225.87500 229.50400,224.57600 C 229.50400,223.27800 228.99800,222.05800 228.08000,221.14000 L 196.54900,189.60900 L 241.14100,189.60900 C 243.82100,189.60900 246.00000,187.42900 246.00000,184.75000 C 246.00000,182.07100 243.82000,179.89100 241.14100,179.89100 L 196.55100,179.89100 L 228.08000,148.36100 C 229.97500,146.46600 229.97600,143.38300 228.08000,141.48900 C 226.18500,139.59400 223.10300,139.59400 221.20800,141.48900 L 189.67800,173.01900 L 189.67800,128.42800 C 189.67800,125.74800 187.49800,123.56800 184.81900,123.56800 C 182.14000,123.56800 179.95800,125.74800 179.95800,128.42800 z " />

    </g>
  <g
     id="g1387"
     style="stroke:#000000"
     transform="matrix(0.901837,0.000000,0.000000,0.901837,24.44184,25.91364)">
      <path
   id="path1389"
   style="fill:#ff9900;stroke:none"
   d="M 172.89000,128.42800 C 172.89000,128.42800 172.89000,144.87500 172.89000,155.95600 C 165.05500,148.12100 153.42500,136.49000 153.42500,136.49000 C 148.77500,131.84000 141.20800,131.84000 136.55700,136.49000 C 134.30400,138.74300 133.06400,141.73800 133.06400,144.92500 C 133.06400,148.11100 134.30400,151.10600 136.55700,153.35900 C 136.55700,153.35900 148.18700,164.98900 156.02200,172.82400 C 144.94100,172.82400 128.49600,172.82400 128.49600,172.82400 C 121.91900,172.82400 116.56800,178.17400 116.56800,184.75100 C 116.56800,191.32800 121.91900,196.67800 128.49600,196.67800 C 128.49600,196.67800 144.94300,196.67800 156.02300,196.67800 C 148.18800,204.51300 136.55800,216.14500 136.55800,216.14500 C 134.23200,218.47000 133.07000,221.52400 133.07000,224.57800 C 133.07000,227.63300 134.23200,230.68600 136.55800,233.01200 C 138.81000,235.26500 141.80600,236.50600 144.99200,236.50600 C 148.17800,236.50600 151.17300,235.26500 153.42600,233.01200 C 153.42600,233.01200 165.05600,221.38300 172.89100,213.54800 C 172.89100,224.62700 172.89100,241.07500 172.89100,241.07500 C 172.89100,247.65100 178.24300,253.00200 184.81900,253.00200 C 191.39500,253.00200 196.74700,247.65100 196.74700,241.07500 C 196.74700,241.07500 196.74700,224.62800 196.74700,213.54800 C 204.58200,221.38300 216.21200,233.01200 216.21200,233.01200 C 218.46400,235.26500 221.46000,236.50600 224.64600,236.50600 C 227.83200,236.50600 230.82700,235.26500 233.08000,233.01200 C 235.33200,230.76000 236.57300,227.76500 236.57300,224.57800 C 236.57300,221.39200 235.33200,218.39700 233.08000,216.14400 C 233.08000,216.14400 221.44900,204.51300 213.61400,196.67800 C 224.69500,196.67800 241.14200,196.67800 241.14200,196.67800 C 247.71900,196.67800 253.07000,191.32800 253.07000,184.75100 C 253.07000,178.17400 247.71900,172.82400 241.14200,172.82400 C 241.14200,172.82400 224.69600,172.82400 213.61500,172.82400 C 221.45100,164.98900 233.08000,153.35900 233.08000,153.35900 C 235.40600,151.03400 236.56800,147.97900 236.56800,144.92500 C 236.56800,141.87000 235.40600,138.81600 233.08000,136.49000 C 228.43000,131.84000 220.86300,131.84000 216.21300,136.49000 C 216.21300,136.49000 204.58300,148.12000 196.74800,155.95500 C 196.74800,144.87500 196.74800,128.42800 196.74800,128.42800 C 196.74800,121.85100 191.39600,116.50000 184.82000,116.50000 C 178.24400,116.50000 172.89000,121.85100 172.89000,128.42800 z " />

      <linearGradient
   gradientUnits="userSpaceOnUse"
   id="linearGradient1391"
   y2="184.75000"
   x2="248.64940"
   y1="184.75000"
   x1="120.98490">
        <stop
   id="stop1393"
   offset="0.0000000"
   style="stop-color:#ffff66;stop-opacity:1.0000000;" />

        <stop
   id="stop1395"
   offset="1.0000000"
   style="stop-color:#ffcc66;stop-opacity:1.0000000;" />

      </linearGradient>

      <path
   id="path1397"
   style="fill:url(#linearGradient1401);stroke:none"
   d="M 241.14000,177.24000 L 202.94900,177.24000 L 229.95500,150.23400 C 232.88700,147.30100 232.88700,142.54600 229.95500,139.61400 C 227.02100,136.68100 222.26700,136.68100 219.33400,139.61400 L 192.32800,166.62000 L 192.32800,128.42800 C 192.32800,124.28100 188.96600,120.91700 184.81800,120.91700 C 180.67000,120.91700 177.30800,124.28000 177.30800,128.42800 L 177.30800,166.62100 L 150.30200,139.61400 C 147.36800,136.68100 142.61400,136.68100 139.68100,139.61400 C 136.74800,142.54700 136.74800,147.30200 139.68100,150.23400 L 166.68700,177.24000 L 128.49600,177.24000 C 124.34800,177.24000 120.98600,180.60200 120.98600,184.75000 C 120.98600,188.89800 124.34800,192.26000 128.49600,192.26000 L 166.68900,192.26000 L 139.68100,219.26700 C 136.74900,222.20000 136.74900,226.95500 139.68100,229.88700 C 142.61500,232.82000 147.36900,232.82000 150.30200,229.88700 L 177.30800,202.88100 L 177.30800,241.07300 C 177.30800,245.22000 180.67000,248.58200 184.81800,248.58200 C 188.96600,248.58200 192.32800,245.22100 192.32800,241.07300 L 192.32800,202.88100 L 219.33400,229.88700 C 222.26700,232.82000 227.02200,232.82000 229.95400,229.88700 C 232.88600,226.95400 232.88700,222.19900 229.95400,219.26700 L 202.94700,192.26000 L 241.14000,192.26000 C 245.28800,192.26000 248.65000,188.89800 248.65000,184.75000 C 248.65000,180.60200 245.28800,177.24000 241.14000,177.24000 z " />

      <path
   id="path1399"
   style="fill:#ffff99;stroke:none"
   d="M 179.95800,128.42800 L 179.95800,173.02100 L 148.42700,141.48900 C 146.53200,139.59400 143.44900,139.59400 141.55500,141.48900 C 140.63800,142.40700 140.13200,143.62800 140.13200,144.92600 C 140.13200,146.22400 140.63800,147.44400 141.55500,148.36200 L 173.08500,179.89200 L 128.49500,179.89200 C 125.81500,179.89200 123.63500,182.07300 123.63500,184.75100 C 123.63500,187.43100 125.81500,189.61000 128.49500,189.61000 L 173.08700,189.61000 L 141.55600,221.14100 C 139.66100,223.03600 139.66100,226.11900 141.55600,228.01300 C 142.47400,228.93000 143.69300,229.43600 144.99200,229.43600 C 146.29000,229.43600 147.51000,228.93000 148.42800,228.01300 L 179.95900,196.48300 L 179.95900,241.07400 C 179.95900,243.75400 182.13900,245.93200 184.81800,245.93200 C 187.49700,245.93200 189.67700,243.75300 189.67700,241.07400 L 189.67700,196.48300 L 221.20700,228.01300 C 222.12500,228.93000 223.34500,229.43600 224.64400,229.43600 C 225.94200,229.43600 227.16200,228.93000 228.08000,228.01300 C 228.99800,227.09500 229.50400,225.87500 229.50400,224.57600 C 229.50400,223.27800 228.99800,222.05800 228.08000,221.14000 L 196.54900,189.60900 L 241.14100,189.60900 C 243.82100,189.60900 246.00000,187.42900 246.00000,184.75000 C 246.00000,182.07100 243.82000,179.89100 241.14100,179.89100 L 196.55100,179.89100 L 228.08000,148.36100 C 229.97500,146.46600 229.97600,143.38300 228.08000,141.48900 C 226.18500,139.59400 223.10300,139.59400 221.20800,141.48900 L 189.67800,173.01900 L 189.67800,128.42800 C 189.67800,125.74800 187.49800,123.56800 184.81900,123.56800 C 182.14000,123.56800 179.95800,125.74800 179.95800,128.42800 z " />

    </g>
  <g
     id="g1406"
     style="stroke:#000000"
     transform="matrix(0.901837,0.000000,0.000000,0.901837,-101.0898,-101.7337)">
      <path
   id="path1408"
   style="fill:#ff9900;stroke:none"
   d="M 172.89000,128.42800 C 172.89000,128.42800 172.89000,144.87500 172.89000,155.95600 C 165.05500,148.12100 153.42500,136.49000 153.42500,136.49000 C 148.77500,131.84000 141.20800,131.84000 136.55700,136.49000 C 134.30400,138.74300 133.06400,141.73800 133.06400,144.92500 C 133.06400,148.11100 134.30400,151.10600 136.55700,153.35900 C 136.55700,153.35900 148.18700,164.98900 156.02200,172.82400 C 144.94100,172.82400 128.49600,172.82400 128.49600,172.82400 C 121.91900,172.82400 116.56800,178.17400 116.56800,184.75100 C 116.56800,191.32800 121.91900,196.67800 128.49600,196.67800 C 128.49600,196.67800 144.94300,196.67800 156.02300,196.67800 C 148.18800,204.51300 136.55800,216.14500 136.55800,216.14500 C 134.23200,218.47000 133.07000,221.52400 133.07000,224.57800 C 133.07000,227.63300 134.23200,230.68600 136.55800,233.01200 C 138.81000,235.26500 141.80600,236.50600 144.99200,236.50600 C 148.17800,236.50600 151.17300,235.26500 153.42600,233.01200 C 153.42600,233.01200 165.05600,221.38300 172.89100,213.54800 C 172.89100,224.62700 172.89100,241.07500 172.89100,241.07500 C 172.89100,247.65100 178.24300,253.00200 184.81900,253.00200 C 191.39500,253.00200 196.74700,247.65100 196.74700,241.07500 C 196.74700,241.07500 196.74700,224.62800 196.74700,213.54800 C 204.58200,221.38300 216.21200,233.01200 216.21200,233.01200 C 218.46400,235.26500 221.46000,236.50600 224.64600,236.50600 C 227.83200,236.50600 230.82700,235.26500 233.08000,233.01200 C 235.33200,230.76000 236.57300,227.76500 236.57300,224.57800 C 236.57300,221.39200 235.33200,218.39700 233.08000,216.14400 C 233.08000,216.14400 221.44900,204.51300 213.61400,196.67800 C 224.69500,196.67800 241.14200,196.67800 241.14200,196.67800 C 247.71900,196.67800 253.07000,191.32800 253.07000,184.75100 C 253.07000,178.17400 247.71900,172.82400 241.14200,172.82400 C 241.14200,172.82400 224.69600,172.82400 213.61500,172.82400 C 221.45100,164.98900 233.08000,153.35900 233.08000,153.35900 C 235.40600,151.03400 236.56800,147.97900 236.56800,144.92500 C 236.56800,141.87000 235.40600,138.81600 233.08000,136.49000 C 228.43000,131.84000 220.86300,131.84000 216.21300,136.49000 C 216.21300,136.49000 204.58300,148.12000 196.74800,155.95500 C 196.74800,144.87500 196.74800,128.42800 196.74800,128.42800 C 196.74800,121.85100 191.39600,116.50000 184.82000,116.50000 C 178.24400,116.50000 172.89000,121.85100 172.89000,128.42800 z " />

      <linearGradient
   gradientUnits="userSpaceOnUse"
   id="linearGradient1410"
   y2="184.75000"
   x2="248.64940"
   y1="184.75000"
   x1="120.98490">
        <stop
   id="stop1412"
   offset="0.0000000"
   style="stop-color:#ffff66;stop-opacity:1.0000000;" />

        <stop
   id="stop1414"
   offset="1.0000000"
   style="stop-color:#ffcc66;stop-opacity:1.0000000;" />

      </linearGradient>

      <path
   id="path1416"
   style="fill:url(#linearGradient1420);stroke:none"
   d="M 241.14000,177.24000 L 202.94900,177.24000 L 229.95500,150.23400 C 232.88700,147.30100 232.88700,142.54600 229.95500,139.61400 C 227.02100,136.68100 222.26700,136.68100 219.33400,139.61400 L 192.32800,166.62000 L 192.32800,128.42800 C 192.32800,124.28100 188.96600,120.91700 184.81800,120.91700 C 180.67000,120.91700 177.30800,124.28000 177.30800,128.42800 L 177.30800,166.62100 L 150.30200,139.61400 C 147.36800,136.68100 142.61400,136.68100 139.68100,139.61400 C 136.74800,142.54700 136.74800,147.30200 139.68100,150.23400 L 166.68700,177.24000 L 128.49600,177.24000 C 124.34800,177.24000 120.98600,180.60200 120.98600,184.75000 C 120.98600,188.89800 124.34800,192.26000 128.49600,192.26000 L 166.68900,192.26000 L 139.68100,219.26700 C 136.74900,222.20000 136.74900,226.95500 139.68100,229.88700 C 142.61500,232.82000 147.36900,232.82000 150.30200,229.88700 L 177.30800,202.88100 L 177.30800,241.07300 C 177.30800,245.22000 180.67000,248.58200 184.81800,248.58200 C 188.96600,248.58200 192.32800,245.22100 192.32800,241.07300 L 192.32800,202.88100 L 219.33400,229.88700 C 222.26700,232.82000 227.02200,232.82000 229.95400,229.88700 C 232.88600,226.95400 232.88700,222.19900 229.95400,219.26700 L 202.94700,192.26000 L 241.14000,192.26000 C 245.28800,192.26000 248.65000,188.89800 248.65000,184.75000 C 248.65000,180.60200 245.28800,177.24000 241.14000,177.24000 z " />

      <path
   id="path1418"
   style="fill:#ffff99;stroke:none"
   d="M 179.95800,128.42800 L 179.95800,173.02100 L 148.42700,141.48900 C 146.53200,139.59400 143.44900,139.59400 141.55500,141.48900 C 140.63800,142.40700 140.13200,143.62800 140.13200,144.92600 C 140.13200,146.22400 140.63800,147.44400 141.55500,148.36200 L 173.08500,179.89200 L 128.49500,179.89200 C 125.81500,179.89200 123.63500,182.07300 123.63500,184.75100 C 123.63500,187.43100 125.81500,189.61000 128.49500,189.61000 L 173.08700,189.61000 L 141.55600,221.14100 C 139.66100,223.03600 139.66100,226.11900 141.55600,228.01300 C 142.47400,228.93000 143.69300,229.43600 144.99200,229.43600 C 146.29000,229.43600 147.51000,228.93000 148.42800,228.01300 L 179.95900,196.48300 L 179.95900,241.07400 C 179.95900,243.75400 182.13900,245.93200 184.81800,245.93200 C 187.49700,245.93200 189.67700,243.75300 189.67700,241.07400 L 189.67700,196.48300 L 221.20700,228.01300 C 222.12500,228.93000 223.34500,229.43600 224.64400,229.43600 C 225.94200,229.43600 227.16200,228.93000 228.08000,228.01300 C 228.99800,227.09500 229.50400,225.87500 229.50400,224.57600 C 229.50400,223.27800 228.99800,222.05800 228.08000,221.14000 L 196.54900,189.60900 L 241.14100,189.60900 C 243.82100,189.60900 246.00000,187.42900 246.00000,184.75000 C 246.00000,182.07100 243.82000,179.89100 241.14100,179.89100 L 196.55100,179.89100 L 228.08000,148.36100 C 229.97500,146.46600 229.97600,143.38300 228.08000,141.48900 C 226.18500,139.59400 223.10300,139.59400 221.20800,141.48900 L 189.67800,173.01900 L 189.67800,128.42800 C 189.67800,125.74800 187.49800,123.56800 184.81900,123.56800 C 182.14000,123.56800 179.95800,125.74800 179.95800,128.42800 z " />

    </g>
  <g
     id="g1422"
     style="stroke:#000000"
     transform="matrix(0.901837,0.000000,0.000000,0.901837,25.14708,-101.7338)">
      <path
   id="path1424"
   style="fill:#ff9900;stroke:none"
   d="M 172.89000,128.42800 C 172.89000,128.42800 172.89000,144.87500 172.89000,155.95600 C 165.05500,148.12100 153.42500,136.49000 153.42500,136.49000 C 148.77500,131.84000 141.20800,131.84000 136.55700,136.49000 C 134.30400,138.74300 133.06400,141.73800 133.06400,144.92500 C 133.06400,148.11100 134.30400,151.10600 136.55700,153.35900 C 136.55700,153.35900 148.18700,164.98900 156.02200,172.82400 C 144.94100,172.82400 128.49600,172.82400 128.49600,172.82400 C 121.91900,172.82400 116.56800,178.17400 116.56800,184.75100 C 116.56800,191.32800 121.91900,196.67800 128.49600,196.67800 C 128.49600,196.67800 144.94300,196.67800 156.02300,196.67800 C 148.18800,204.51300 136.55800,216.14500 136.55800,216.14500 C 134.23200,218.47000 133.07000,221.52400 133.07000,224.57800 C 133.07000,227.63300 134.23200,230.68600 136.55800,233.01200 C 138.81000,235.26500 141.80600,236.50600 144.99200,236.50600 C 148.17800,236.50600 151.17300,235.26500 153.42600,233.01200 C 153.42600,233.01200 165.05600,221.38300 172.89100,213.54800 C 172.89100,224.62700 172.89100,241.07500 172.89100,241.07500 C 172.89100,247.65100 178.24300,253.00200 184.81900,253.00200 C 191.39500,253.00200 196.74700,247.65100 196.74700,241.07500 C 196.74700,241.07500 196.74700,224.62800 196.74700,213.54800 C 204.58200,221.38300 216.21200,233.01200 216.21200,233.01200 C 218.46400,235.26500 221.46000,236.50600 224.64600,236.50600 C 227.83200,236.50600 230.82700,235.26500 233.08000,233.01200 C 235.33200,230.76000 236.57300,227.76500 236.57300,224.57800 C 236.57300,221.39200 235.33200,218.39700 233.08000,216.14400 C 233.08000,216.14400 221.44900,204.51300 213.61400,196.67800 C 224.69500,196.67800 241.14200,196.67800 241.14200,196.67800 C 247.71900,196.67800 253.07000,191.32800 253.07000,184.75100 C 253.07000,178.17400 247.71900,172.82400 241.14200,172.82400 C 241.14200,172.82400 224.69600,172.82400 213.61500,172.82400 C 221.45100,164.98900 233.08000,153.35900 233.08000,153.35900 C 235.40600,151.03400 236.56800,147.97900 236.56800,144.92500 C 236.56800,141.87000 235.40600,138.81600 233.08000,136.49000 C 228.43000,131.84000 220.86300,131.84000 216.21300,136.49000 C 216.21300,136.49000 204.58300,148.12000 196.74800,155.95500 C 196.74800,144.87500 196.74800,128.42800 196.74800,128.42800 C 196.74800,121.85100 191.39600,116.50000 184.82000,116.50000 C 178.24400,116.50000 172.89000,121.85100 172.89000,128.42800 z " />

      <linearGradient
   gradientUnits="userSpaceOnUse"
   id="linearGradient1426"
   y2="184.75000"
   x2="248.64940"
   y1="184.75000"
   x1="120.98490">
        <stop
   id="stop1428"
   offset="0.0000000"
   style="stop-color:#ffff66;stop-opacity:1.0000000;" />

        <stop
   id="stop1430"
   offset="1.0000000"
   style="stop-color:#ffcc66;stop-opacity:1.0000000;" />

      </linearGradient>

      <path
   id="path1432"
   style="fill:url(#linearGradient1436);stroke:none"
   d="M 241.14000,177.24000 L 202.94900,177.24000 L 229.95500,150.23400 C 232.88700,147.30100 232.88700,142.54600 229.95500,139.61400 C 227.02100,136.68100 222.26700,136.68100 219.33400,139.61400 L 192.32800,166.62000 L 192.32800,128.42800 C 192.32800,124.28100 188.96600,120.91700 184.81800,120.91700 C 180.67000,120.91700 177.30800,124.28000 177.30800,128.42800 L 177.30800,166.62100 L 150.30200,139.61400 C 147.36800,136.68100 142.61400,136.68100 139.68100,139.61400 C 136.74800,142.54700 136.74800,147.30200 139.68100,150.23400 L 166.68700,177.24000 L 128.49600,177.24000 C 124.34800,177.24000 120.98600,180.60200 120.98600,184.75000 C 120.98600,188.89800 124.34800,192.26000 128.49600,192.26000 L 166.68900,192.26000 L 139.68100,219.26700 C 136.74900,222.20000 136.74900,226.95500 139.68100,229.88700 C 142.61500,232.82000 147.36900,232.82000 150.30200,229.88700 L 177.30800,202.88100 L 177.30800,241.07300 C 177.30800,245.22000 180.67000,248.58200 184.81800,248.58200 C 188.96600,248.58200 192.32800,245.22100 192.32800,241.07300 L 192.32800,202.88100 L 219.33400,229.88700 C 222.26700,232.82000 227.02200,232.82000 229.95400,229.88700 C 232.88600,226.95400 232.88700,222.19900 229.95400,219.26700 L 202.94700,192.26000 L 241.14000,192.26000 C 245.28800,192.26000 248.65000,188.89800 248.65000,184.75000 C 248.65000,180.60200 245.28800,177.24000 241.14000,177.24000 z " />

      <path
   id="path1434"
   style="fill:#ffff99;stroke:none"
   d="M 179.95800,128.42800 L 179.95800,173.02100 L 148.42700,141.48900 C 146.53200,139.59400 143.44900,139.59400 141.55500,141.48900 C 140.63800,142.40700 140.13200,143.62800 140.13200,144.92600 C 140.13200,146.22400 140.63800,147.44400 141.55500,148.36200 L 173.08500,179.89200 L 128.49500,179.89200 C 125.81500,179.89200 123.63500,182.07300 123.63500,184.75100 C 123.63500,187.43100 125.81500,189.61000 128.49500,189.61000 L 173.08700,189.61000 L 141.55600,221.14100 C 139.66100,223.03600 139.66100,226.11900 141.55600,228.01300 C 142.47400,228.93000 143.69300,229.43600 144.99200,229.43600 C 146.29000,229.43600 147.51000,228.93000 148.42800,228.01300 L 179.95900,196.48300 L 179.95900,241.07400 C 179.95900,243.75400 182.13900,245.93200 184.81800,245.93200 C 187.49700,245.93200 189.67700,243.75300 189.67700,241.07400 L 189.67700,196.48300 L 221.20700,228.01300 C 222.12500,228.93000 223.34500,229.43600 224.64400,229.43600 C 225.94200,229.43600 227.16200,228.93000 228.08000,228.01300 C 228.99800,227.09500 229.50400,225.87500 229.50400,224.57600 C 229.50400,223.27800 228.99800,222.05800 228.08000,221.14000 L 196.54900,189.60900 L 241.14100,189.60900 C 243.82100,189.60900 246.00000,187.42900 246.00000,184.75000 C 246.00000,182.07100 243.82000,179.89100 241.14100,179.89100 L 196.55100,179.89100 L 228.08000,148.36100 C 229.97500,146.46600 229.97600,143.38300 228.08000,141.48900 C 226.18500,139.59400 223.10300,139.59400 221.20800,141.48900 L 189.67800,173.01900 L 189.67800,128.42800 C 189.67800,125.74800 187.49800,123.56800 184.81900,123.56800 C 182.14000,123.56800 179.95800,125.74800 179.95800,128.42800 z " />

    </g>
</g>
</svg>
