<?xml version="1.0" encoding="UTF-8" standalone="no"?>
<!-- Created with Inkscape (http://www.inkscape.org/) -->
<svg
   xmlns:xml="http://www.w3.org/XML/1998/namespace"
   xmlns:svg="http://www.w3.org/2000/svg"
   xmlns="http://www.w3.org/2000/svg"
   xmlns:xlink="http://www.w3.org/1999/xlink"
   xml:space="preserve"
   id="svg153"
   viewBox="0 0 256 256"
   height="60.000000"
   width="60.000000"
   y="0.0000000"
   x="0.0000000"
   version="1.0">
  <defs
   id="defs172">
    
    
    
    <linearGradient
   gradientUnits="userSpaceOnUse"
   id="XMLID_1_"
   y2="312.20990"
   x2="312.32861"
   y1="86.276398"
   x1="86.394997">
      <stop
   id="stop161"
   offset="0.0000000"
   style="stop-color:#ffffff;stop-opacity:1.0000000;" />

      <stop
   id="stop162"
   offset="1.0000000"
   style="stop-color:#99ccff;stop-opacity:1.0000000;" />

    </linearGradient>

    
    
    
  <linearGradient
   gradientUnits="userSpaceOnUse"
   xlink:href="#XMLID_1_"
   id="linearGradient1316"
   y2="312.20990"
   x2="312.32861"
   y1="86.276398"
   x1="86.394997" />
</defs>

  
  <g
   id="Layer_2"
   style="stroke:#000000">
    <path
   id="path155"
   style="fill:none;stroke:none"
   d="M 256.00000,256.00000 L 0.0000000,256.00000 L 0.0000000,0.0000000 L 256.00000,0.0000000 L 256.00000,256.00000 z " />

  </g>

  <g
   id="g167"
   style="stroke:#000000"
   transform="matrix(0.944490,-0.946385,0.946385,0.944490,-121.5390,122.7850)">
      <path
   id="path168"
   style="fill:#990000;stroke:none"
   d="M 159.49500,71.174000 C 159.49500,71.174000 159.49500,71.174000 159.49500,71.174000 C 159.49600,71.174000 133.87600,96.793000 127.86100,102.80800 C 121.84600,96.793000 96.227000,71.173000 96.227000,71.173000 C 92.074000,67.021000 85.316000,67.021000 81.163000,71.173000 L 65.346000,86.991000 C 63.334000,89.004000 62.226000,91.679000 62.226000,94.523000 C 62.226000,97.368000 63.334000,100.04200 65.345000,102.05400 C 65.345000,102.05400 90.965000,127.67500 96.980000,133.69000 C 90.965000,139.70400 65.346000,165.32500 65.346000,165.32500 C 63.335000,167.33500 62.226000,170.01000 62.226000,172.85500 C 62.226000,175.70200 63.334000,178.37600 65.347000,180.38700 L 81.163000,196.20300 C 83.173000,198.21600 85.848000,199.32400 88.695000,199.32400 C 91.541000,199.32400 94.216000,198.21600 96.228000,196.20200 C 96.228000,196.20200 118.75300,173.67800 127.86100,164.57000 C 133.87600,170.58500 159.49600,196.20300 159.49600,196.20300 C 161.50700,198.21600 164.18200,199.32400 167.02700,199.32400 C 169.87200,199.32400 172.54800,198.21600 174.55900,196.20200 L 190.37500,180.38600 C 192.38700,178.37700 193.49600,175.70200 193.49600,172.85500 C 193.49600,170.00800 192.38700,167.33300 190.37400,165.32200 C 190.37400,165.32200 164.75700,139.70400 158.74200,133.69000 C 164.75700,127.67500 190.37500,102.05500 190.37500,102.05500 C 192.38700,100.04400 193.49600,97.369000 193.49600,94.523000 C 193.49600,91.677000 192.38700,89.002000 190.37400,86.990000 L 174.55800,71.174000 C 172.54700,69.162000 169.87100,68.054000 167.02700,68.054000 C 164.18300,68.054000 161.50700,69.162000 159.49500,71.174000 z " />

      <path
   id="path169"
   style="fill:#ff0000;stroke:none"
   d="M 151.21100,133.68900 C 157.36400,127.53600 186.61000,98.289000 186.61000,98.289000 C 187.61000,97.289000 188.17100,95.935000 188.17100,94.522000 C 188.17100,93.110000 187.61000,91.755000 186.61000,90.756000 L 170.79300,74.939000 C 168.71400,72.859000 165.34100,72.859000 163.26200,74.939000 C 163.26200,74.939000 134.01500,104.18700 127.86200,110.33900 C 121.70900,104.18600 92.462000,74.939000 92.462000,74.939000 C 90.382000,72.859000 87.009000,72.860000 84.930000,74.939000 L 69.112000,90.757000 C 68.072000,91.797000 67.552000,93.160000 67.552000,94.523000 C 67.552000,95.886000 68.072000,97.249000 69.112000,98.290000 C 69.112000,98.290000 98.359000,127.53700 104.51200,133.69000 C 98.359000,139.84200 69.112000,169.09000 69.112000,169.09000 C 68.072000,170.12900 67.552000,171.49200 67.552000,172.85500 C 67.552000,174.21800 68.072000,175.58200 69.112000,176.62100 L 84.929000,192.43900 C 85.928000,193.43800 87.283000,193.99900 88.695000,193.99900 C 90.107000,193.99900 91.462000,193.43800 92.461000,192.43900 C 92.461000,192.43900 121.70800,163.19200 127.86100,157.03900 C 134.01400,163.19200 163.26100,192.43900 163.26100,192.43900 C 165.34000,194.51900 168.71300,194.51900 170.79200,192.43900 L 186.60900,176.62100 C 187.64900,175.58200 188.17000,174.21900 188.17000,172.85500 C 188.17000,171.49300 187.64900,170.12900 186.60900,169.09000 C 186.61000,169.09000 157.36400,139.84200 151.21100,133.68900 z " />

    </g>

</svg>
